<svg width="256" height="256" viewBox="0 0 256 256" xmlns="http://www.w3.org/2000/svg">
  <defs>
    <linearGradient id="bg" x1="0" y1="0" x2="1" y2="1">
      <stop offset="0" stop-color="#3b8bff"/>
      <stop offset="1" stop-color="#0a4bc4"/>
    </linearGradient>
    <filter id="sh" x="-20%" y="-20%" width="140%" height="140%">
      <feDropShadow dx="0" dy="6" stdDeviation="6" flood-color="#000" flood-opacity="0.18"/>
    </filter>
  </defs>
  <rect x="8" y="8" width="240" height="240" rx="54" fill="url(#bg)"/>
  <!-- Sync arrows (Octicon-style), trắng, căn giữa -->
  <g transform="translate(48,48) scale(10)" fill="#ffffff" filter="url(#sh)">
    <path d="M1.705 8.005a.75.75 0 0 1 .834.656 5.5 5.5 0 0 0 9.592 2.97l-1.204-1.204a.25.25 0 0 1 .177-.427h3.646a.25.25 0 0 1 .25.25v3.646a.25.25 0 0 1-.427.177l-1.38-1.38A7.002 7.002 0 0 1 1.05 8.84a.75.75 0 0 1 .656-.834ZM8 2.5a5.487 5.487 0 0 0-4.131 1.869l1.204 1.204A.25.25 0 0 1 4.896 6H1.25A.25.25 0 0 1 1 5.75V2.104a.25.25 0 0 1 .427-.177l1.38 1.38A7.002 7.002 0 0 1 14.95 7.16a.75.75 0 0 1-1.49.178A5.5 5.5 0 0 0 8 2.5Z"/>
  </g>
</svg>
